<svg xmlns="http://www.w3.org/2000/svg" viewBox="0 0 512 512" width="512" height="512">
  <defs>
    <linearGradient id="purpleGrad" x1="0%" y1="0%" x2="100%" y2="100%">
      <stop offset="0%" style="stop-color:#6366f1;stop-opacity:1" />
      <stop offset="100%" style="stop-color:#4f46e5;stop-opacity:1" />
    </linearGradient>
  </defs>
  <rect width="512" height="512" rx="128" fill="url(#purpleGrad)" />
  <path fill="#ffffff" d="M112 112c0 26.5-21.5 48-48 48S16 138.5 16 112s21.5-48 48-48 48 21.5 48 48zm48 0c0-53-43-96-96-96S0 59 0 112s43 96 96 96c14.2 0 27.6-3.1 39.7-8.7L256 320 135.7 440.7c-12.1-5.6-25.5-8.7-39.7-8.7-53 0-96 43-96 96s43 96 96 96 96-43 96-96c0-14.2-3.1-27.6-8.7-39.7L256 320l72.3 72.3c-5.6 12.1-8.7 25.5-8.7 39.7 0 53 43 96 96 96s96-43 96-96-43-96-96-96-43-96-96-96c-14.2 0-27.6 3.1-39.7 8.7L256 320l120.3-120.7c12.1 5.6 25.5 8.7 39.7 8.7 53 0 96-43 96-96s-43-96-96-96-96 43-96 96c0 14.2 3.1 27.6 8.7 39.7L256 320 175.7 239.3c5.6-12.1 8.7-25.5 8.7-39.7zm288 0c0 26.5-21.5 48-48 48s-48-21.5-48-48 21.5-48 48-48 48 21.5 48 48z" transform="scale(0.78) translate(72, 72)" />
</svg>